<svg width="23" height="18" viewBox="0 0 23 18" fill="none" xmlns="http://www.w3.org/2000/svg">
<path d="M22.218 4.16953L19.8225 0.527344C19.6084 0.200391 19.2283 0 18.8223 0H3.91043C3.50442 0 3.12424 0.200391 2.91016 0.527344L0.514669 4.16953C-0.721832 6.05039 0.374409 8.66602 2.685 8.96484C2.8511 8.98594 3.02089 8.99648 3.19068 8.99648C4.28323 8.99648 5.25028 8.53945 5.91467 7.83281C6.57906 8.53945 7.5498 8.99648 8.63866 8.99648C9.73121 8.99648 10.6983 8.53945 11.3627 7.83281C12.027 8.53945 12.9978 8.99648 14.0866 8.99648C15.1792 8.99648 16.1462 8.53945 16.8106 7.83281C17.4787 8.53945 18.4458 8.99648 19.5346 8.99648C19.7081 8.99648 19.8742 8.98594 20.0403 8.96484C22.3583 8.66953 23.4582 6.05391 22.218 4.16953ZM19.542 10.125C19.1729 10.125 18.8075 10.0723 18.4531 9.99141V13.5H4.27954V9.99141C3.92519 10.0688 3.55978 10.125 3.19068 10.125C2.96921 10.125 2.74406 10.1109 2.52629 10.0828C2.31959 10.0547 2.11658 10.009 1.92096 9.95625V16.875C1.92096 17.4973 2.44878 18 3.10209 18H19.638C20.2913 18 20.8191 17.4973 20.8191 16.875V9.95625C20.6198 10.0125 20.4205 10.0582 20.2138 10.0828C19.9886 10.1109 19.7672 10.125 19.542 10.125Z" fill="#CCCCCC"/>
</svg>
