<svg width="27" height="24" viewBox="0 0 27 24" fill="none" xmlns="http://www.w3.org/2000/svg">
<path d="M12.0115 1.9313C6.56678 1.9313 2.13159 5.97063 2.13159 10.9294C2.13159 15.8881 6.56678 19.9353 12.0115 19.9353C14.337 19.9353 16.4759 19.193 18.1663 17.9606L22.2816 21.7067C22.4893 21.888 22.7667 21.988 23.0544 21.9854C23.342 21.9827 23.6171 21.8775 23.8207 21.6924C24.0243 21.5073 24.1401 21.2569 24.1435 20.9949C24.1468 20.7329 24.0374 20.4802 23.8386 20.2908L19.7232 16.5427C21.0775 15.0008 21.8935 13.0498 21.8935 10.9294C21.8935 5.97063 17.4561 1.9313 12.0115 1.9313ZM12.0115 3.93134C16.2693 3.93134 19.6953 7.05153 19.6953 10.9294C19.6953 14.8072 16.2693 17.9352 12.0115 17.9352C7.75359 17.9352 4.32759 14.8072 4.32759 10.9294C4.32759 7.05153 7.75359 3.93134 12.0115 3.93134Z" fill="#7D8FAB"/>
</svg>
