<svg width="430" height="932" viewBox="0 0 430 932" fill="none" xmlns="http://www.w3.org/2000/svg">
<g opacity="0.4" clip-path="url(#clip0_30_63)">
<rect width="430" height="932" fill="white"/>
<path d="M0 0H430V253.981L0 390.91V0Z" fill="url(#paint0_linear_30_63)"/>
<path d="M430 0C409.229 48.6442 386.667 103.918 361.367 150.356C347.056 176.626 338.443 199.877 306.806 219.902C289.138 231.086 263.061 240.425 243.066 246.8C210.319 257.244 175.598 261.824 142.062 269.391C92.3973 280.6 53.1212 290.758 0 322.446V587.469L430 435.633V0Z" fill="url(#paint1_linear_30_63)"/>
<path d="M430 300.912C409.558 297.159 389.299 295.693 368.54 296.687C295.455 300.185 213.608 338.72 154.74 397.66C95.8725 456.599 44.7434 520.594 0 588.021V834.272L430 706.178V300.912Z" fill="url(#paint2_radial_30_63)"/>
<path d="M430 300.912C409.558 297.159 389.299 295.693 368.54 296.687C295.455 300.185 213.608 338.72 154.74 397.66C95.8725 456.599 44.7434 520.594 0 588.021V834.272L430 706.178V300.912Z" fill="url(#paint3_linear_30_63)"/>
<g filter="url(#filter0_f_30_63)">
<ellipse cx="140.536" cy="89.8775" rx="140.536" ry="89.8775" transform="matrix(0.836467 -0.548017 0.546834 0.837241 -117.974 511.814)" fill="#0CEBFE"/>
</g>
<path d="M430 374.898C401.621 418.012 366.579 454.462 328.997 489.822C313.173 504.703 298.85 517.055 273.822 528.307C248.794 539.56 207.408 544.344 184.255 541.511C168.169 539.541 141.447 532.986 120.125 529.488C79.9982 522.908 38.2088 526.829 0 540.759V807.77L430 690.718V374.898Z" fill="url(#paint4_linear_30_63)"/>
<path d="M430 374.898C401.621 418.012 366.579 454.462 328.997 489.822C313.173 504.703 298.85 517.055 273.822 528.307C248.794 539.56 207.408 544.344 184.255 541.511C168.169 539.541 141.447 532.986 120.125 529.488C79.9982 522.908 38.2088 526.829 0 540.759V807.77L430 690.718V374.898Z" fill="url(#paint5_radial_30_63)"/>
<path d="M430 588.573C391.773 591.823 370.799 599.711 346.516 618.388C317.312 640.855 310.97 667.653 274.182 701.261C262.342 712.079 247.622 721.256 233.51 728.867C192.006 751.248 147.337 757.542 108.613 755.479C70.8013 753.466 34.9383 736.803 0 722.189V931.993H430V588.573Z" fill="url(#paint6_linear_30_63)"/>
<path d="M430 588.573C391.773 591.823 370.799 599.711 346.516 618.388C317.312 640.855 310.97 667.653 274.182 701.261C262.342 712.079 247.622 721.256 233.51 728.867C192.006 751.248 147.337 757.542 108.613 755.479C70.8013 753.466 34.9383 736.803 0 722.189V931.993H430V588.573Z" fill="url(#paint7_linear_30_63)"/>
<g filter="url(#filter1_f_30_63)">
<ellipse cx="126.2" cy="89.8775" rx="126.2" ry="89.8775" transform="matrix(0.836467 -0.548017 0.546834 0.837241 255.795 434.263)" fill="#C6FCFF"/>
</g>
<g filter="url(#filter2_f_30_63)">
<ellipse cx="233.321" cy="163.649" rx="233.321" ry="163.649" transform="matrix(-0.00586923 -0.999983 0.999983 -0.00588736 -154.433 1039.61)" fill="url(#paint8_linear_30_63)"/>
</g>
<g filter="url(#filter3_f_30_63)">
<ellipse cx="143.412" cy="128.928" rx="143.412" ry="128.928" transform="matrix(-0.121169 -0.992632 0.992587 -0.121538 328.036 244.911)" fill="#1894FB"/>
</g>
<g filter="url(#filter4_f_30_63)">
<ellipse cx="109.023" cy="23.5442" rx="109.023" ry="23.5442" transform="matrix(0.566328 -0.82418 0.823364 0.567514 320.846 180.814)" fill="#B5FAFF"/>
</g>
</g>
<defs>
<filter id="filter0_f_30_63" x="-148.72" y="332.372" width="394.895" height="355.35" filterUnits="userSpaceOnUse" color-interpolation-filters="sRGB">
<feFlood flood-opacity="0" result="BackgroundImageFix"/>
<feBlend mode="normal" in="SourceGraphic" in2="BackgroundImageFix" result="shape"/>
<feGaussianBlur stdDeviation="35" result="effect1_foregroundBlur_30_63"/>
</filter>
<filter id="filter1_f_30_63" x="234.035" y="278.148" width="352.942" height="324.408" filterUnits="userSpaceOnUse" color-interpolation-filters="sRGB">
<feFlood flood-opacity="0" result="BackgroundImageFix"/>
<feBlend mode="normal" in="SourceGraphic" in2="BackgroundImageFix" result="shape"/>
<feGaussianBlur stdDeviation="30" result="effect1_foregroundBlur_30_63"/>
</filter>
<filter id="filter2_f_30_63" x="-255.808" y="472.008" width="527.303" height="666.638" filterUnits="userSpaceOnUse" color-interpolation-filters="sRGB">
<feFlood flood-opacity="0" result="BackgroundImageFix"/>
<feBlend mode="normal" in="SourceGraphic" in2="BackgroundImageFix" result="shape"/>
<feGaussianBlur stdDeviation="50" result="effect1_foregroundBlur_30_63"/>
</filter>
<filter id="filter3_f_30_63" x="231.469" y="-134.342" width="414.325" height="442.455" filterUnits="userSpaceOnUse" color-interpolation-filters="sRGB">
<feFlood flood-opacity="0" result="BackgroundImageFix"/>
<feBlend mode="normal" in="SourceGraphic" in2="BackgroundImageFix" result="shape"/>
<feGaussianBlur stdDeviation="39" result="effect1_foregroundBlur_30_63"/>
</filter>
<filter id="filter4_f_30_63" x="307.243" y="-16.5344" width="189.464" height="241.71" filterUnits="userSpaceOnUse" color-interpolation-filters="sRGB">
<feFlood flood-opacity="0" result="BackgroundImageFix"/>
<feBlend mode="normal" in="SourceGraphic" in2="BackgroundImageFix" result="shape"/>
<feGaussianBlur stdDeviation="15" result="effect1_foregroundBlur_30_63"/>
</filter>
<linearGradient id="paint0_linear_30_63" x1="315.885" y1="225.822" x2="390.541" y2="25.8079" gradientUnits="userSpaceOnUse">
<stop stop-color="#0D98FD"/>
<stop offset="0.637242" stop-color="#B8FBFF"/>
<stop offset="1" stop-color="#CCFCFF"/>
</linearGradient>
<linearGradient id="paint1_linear_30_63" x1="7.97605e-06" y1="427.903" x2="430.16" y2="268.769" gradientUnits="userSpaceOnUse">
<stop stop-color="#02E5FD"/>
<stop offset="0.532511" stop-color="#3695F9"/>
<stop offset="1" stop-color="#0B77F7"/>
</linearGradient>
<radialGradient id="paint2_radial_30_63" cx="0" cy="0" r="1" gradientUnits="userSpaceOnUse" gradientTransform="translate(247.526 538.881) rotate(-105.599) scale(120.955 186.838)">
<stop offset="0.286458" stop-color="#FD2801"/>
<stop offset="1" stop-color="#FE8201"/>
</radialGradient>
<linearGradient id="paint3_linear_30_63" x1="310.923" y1="323.55" x2="283.284" y2="398.612" gradientUnits="userSpaceOnUse">
<stop stop-color="#1C94FB"/>
<stop offset="1" stop-color="#CCFCFF"/>
</linearGradient>
<linearGradient id="paint4_linear_30_63" x1="424.782" y1="574.266" x2="3.86146" y2="714.196" gradientUnits="userSpaceOnUse">
<stop stop-color="#FE9391"/>
<stop offset="0.272002" stop-color="#FE4AC8"/>
<stop offset="0.737617" stop-color="#BE53EB"/>
<stop offset="1" stop-color="#7F75F0"/>
</linearGradient>
<radialGradient id="paint5_radial_30_63" cx="0" cy="0" r="1" gradientUnits="userSpaceOnUse" gradientTransform="translate(286.667 539.986) rotate(98.7508) scale(134.073 194.862)">
<stop stop-color="#18F3FE"/>
<stop offset="1" stop-color="#1A94FC"/>
</radialGradient>
<linearGradient id="paint6_linear_30_63" x1="396.557" y1="850.653" x2="-7.9345" y2="898.017" gradientUnits="userSpaceOnUse">
<stop stop-color="#00F2FE"/>
<stop offset="1" stop-color="#0F96FC"/>
</linearGradient>
<linearGradient id="paint7_linear_30_63" x1="325.461" y1="637.646" x2="384.267" y2="834.892" gradientUnits="userSpaceOnUse">
<stop stop-color="white" stop-opacity="0.8"/>
<stop offset="0.282701" stop-color="white" stop-opacity="0.71"/>
<stop offset="1" stop-color="#01F3FF" stop-opacity="0"/>
</linearGradient>
<linearGradient id="paint8_linear_30_63" x1="112.091" y1="188.939" x2="461.604" y2="189.629" gradientUnits="userSpaceOnUse">
<stop stop-color="#0F97FD"/>
<stop offset="0.567974" stop-color="#02A1FC"/>
<stop offset="1" stop-color="#0D49F2"/>
</linearGradient>
<clipPath id="clip0_30_63">
<rect width="430" height="932" fill="white"/>
</clipPath>
</defs>
</svg>
