<svg width="17" height="20" viewBox="0 0 17 20" fill="none" xmlns="http://www.w3.org/2000/svg">
<path d="M3.10048 0H13.4354C14.2577 0 15.0463 0.316071 15.6278 0.87868C16.2092 1.44129 16.5359 2.20435 16.5359 3V17C16.5359 17.7956 16.2092 18.5587 15.6278 19.1213C15.0463 19.6839 14.2577 20 13.4354 20H3.10048C2.27818 20 1.48956 19.6839 0.908109 19.1213C0.326657 18.5587 0 17.7956 0 17V3C0 2.20435 0.326657 1.44129 0.908109 0.87868C1.48956 0.316071 2.27818 0 3.10048 0ZM4.13397 7C3.85987 7 3.597 7.10536 3.40318 7.29289C3.20936 7.48043 3.10048 7.73478 3.10048 8C3.10048 8.26522 3.20936 8.51957 3.40318 8.70711C3.597 8.89464 3.85987 9 4.13397 9H12.4019C12.676 9 12.9389 8.89464 13.1327 8.70711C13.3265 8.51957 13.4354 8.26522 13.4354 8C13.4354 7.73478 13.3265 7.48043 13.1327 7.29289C12.9389 7.10536 12.676 7 12.4019 7H4.13397ZM4.13397 15C3.85987 15 3.597 15.1054 3.40318 15.2929C3.20936 15.4804 3.10048 15.7348 3.10048 16C3.10048 16.2652 3.20936 16.5196 3.40318 16.7071C3.597 16.8946 3.85987 17 4.13397 17H9.30144C9.57553 17 9.83841 16.8946 10.0322 16.7071C10.226 16.5196 10.3349 16.2652 10.3349 16C10.3349 15.7348 10.226 15.4804 10.0322 15.2929C9.83841 15.1054 9.57553 15 9.30144 15H4.13397ZM4.13397 3C3.85987 3 3.597 3.10536 3.40318 3.29289C3.20936 3.48043 3.10048 3.73478 3.10048 4C3.10048 4.26522 3.20936 4.51957 3.40318 4.70711C3.597 4.89464 3.85987 5 4.13397 5H12.4019C12.676 5 12.9389 4.89464 13.1327 4.70711C13.3265 4.51957 13.4354 4.26522 13.4354 4C13.4354 3.73478 13.3265 3.48043 13.1327 3.29289C12.9389 3.10536 12.676 3 12.4019 3H4.13397ZM4.13397 11C3.85987 11 3.597 11.1054 3.40318 11.2929C3.20936 11.4804 3.10048 11.7348 3.10048 12C3.10048 12.2652 3.20936 12.5196 3.40318 12.7071C3.597 12.8946 3.85987 13 4.13397 13H12.4019C12.676 13 12.9389 12.8946 13.1327 12.7071C13.3265 12.5196 13.4354 12.2652 13.4354 12C13.4354 11.7348 13.3265 11.4804 13.1327 11.2929C12.9389 11.1054 12.676 11 12.4019 11H4.13397Z" fill="#C5C5C5"/>
</svg>
