<svg width="51" height="51" viewBox="0 0 51 51" fill="none" xmlns="http://www.w3.org/2000/svg">
<path d="M46.75 15.7888V28.5388C46.75 31.7263 45.6875 34.3825 43.8175 36.2525C41.9688 38.1013 39.3125 39.1638 36.125 39.1638V43.69C36.125 45.39 34.2337 46.41 32.8312 45.475L23.375 39.1638H18.87C19.04 38.5263 19.125 37.8675 19.125 37.1875C19.125 35.02 18.2962 33.0225 16.9362 31.5138C16.1459 30.6208 15.1741 29.9067 14.0857 29.4194C12.9973 28.932 11.8175 28.6825 10.625 28.6875C8.245 28.6875 6.0775 29.665 4.52625 31.2588C4.335 30.4088 4.25 29.495 4.25 28.5388V15.7888C4.25 9.41376 8.5 5.16376 14.875 5.16376H36.125C42.5 5.16376 46.75 9.41376 46.75 15.7888Z" stroke="white" stroke-width="1.5" stroke-miterlimit="10" stroke-linecap="round" stroke-linejoin="round"/>
<path d="M13.7913 37.145H7.45877M10.625 34.0425V40.3963M18.0625 22.3125H32.9375M19.125 37.1875C19.125 37.8675 19.04 38.5263 18.87 39.1638C18.6788 40.0138 18.3388 40.8425 17.8925 41.565C17.1434 42.824 16.0793 43.8663 14.805 44.5892C13.5307 45.312 12.0901 45.6905 10.625 45.6875C8.53284 45.6937 6.51496 44.9123 4.97252 43.4987C4.33502 42.9462 3.78252 42.2875 3.35752 41.565C2.54862 40.2484 2.12188 38.7327 2.12502 37.1875C2.12362 36.0709 2.34252 34.9649 2.76919 33.933C3.19586 32.9011 3.82191 31.9635 4.61149 31.174C5.40107 30.3844 6.33866 29.7583 7.37055 29.3317C8.40245 28.905 9.50839 28.6861 10.625 28.6875C13.1325 28.6875 15.4063 29.7712 16.9363 31.5137C18.2963 33.0225 19.125 35.02 19.125 37.1875Z" stroke="white" stroke-width="1.5" stroke-miterlimit="10" stroke-linecap="round" stroke-linejoin="round"/>
</svg>
