<svg width="78" height="63" viewBox="0 0 78 63" fill="none" xmlns="http://www.w3.org/2000/svg">
<rect width="77.512" height="63" fill="white"/>
<rect x="8.26794" width="65.11" height="63" rx="31.5" fill="#2590CF"/>
<g clip-path="url(#clip0_69_406)">
<path d="M45.6573 37.8443C44.0643 37.8428 42.7716 39.0911 42.77 40.6325C42.7685 42.1739 44.0587 43.4247 45.6517 43.4262C47.2447 43.4277 48.5373 42.1793 48.5389 40.6379V40.6353C48.5374 39.0955 47.2486 37.8473 45.6573 37.8443Z" fill="white"/>
<path d="M50.7732 24.4797C50.7042 24.4668 50.6341 24.4602 50.5638 24.4601H33.0013L32.7232 22.6595C32.5499 21.4638 31.4928 20.5741 30.2449 20.5737H27.9835C27.369 20.5737 26.8708 21.0557 26.8708 21.6503C26.8708 22.2449 27.369 22.7268 27.9835 22.7268H30.2476C30.3891 22.7258 30.5088 22.8278 30.5258 22.9637L32.2392 34.3267C32.4741 35.7705 33.7577 36.8357 35.2683 36.8404H46.8422C48.2965 36.8423 49.5512 35.8532 49.8434 34.4747L51.6542 25.7412C51.7709 25.1574 51.3765 24.5927 50.7732 24.4797Z" fill="white"/>
<path d="M38.5911 40.5157C38.5234 39.0196 37.2472 37.8418 35.6994 37.847C34.1077 37.9092 32.8695 39.2082 32.9338 40.7483C32.9955 42.2261 34.2379 43.4007 35.7662 43.4262H35.8357C37.4272 43.3587 38.6608 42.0557 38.5911 40.5157Z" fill="white"/>
</g>
<path d="M56.8421 31C60.217 31 63.0096 28.3445 63.0096 25C63.0096 21.6555 60.217 19 56.8421 19C53.4673 19 50.6747 21.6555 50.6747 25C50.6747 28.3445 53.4673 31 56.8421 31Z" fill="#FFA902" stroke="#F3FFF9" stroke-width="2"/>
<defs>
<clipPath id="clip0_69_406">
<rect width="24.8038" height="24" fill="white" transform="translate(26.8708 20)"/>
</clipPath>
</defs>
</svg>
