<svg width="22" height="22" viewBox="0 0 22 22" fill="none" xmlns="http://www.w3.org/2000/svg">
<path d="M21.9385 10.9382C21.8796 11.0771 21.7795 11.1959 21.6508 11.2798C21.5222 11.3637 21.3707 11.4089 21.2156 11.4096H18.8581V19.0131C18.8581 19.6181 18.6098 20.1983 18.1677 20.6261C17.7256 21.0539 17.1259 21.2942 16.5007 21.2942H13.3574C13.149 21.2942 12.9491 21.2141 12.8018 21.0715C12.6544 20.9289 12.5716 20.7355 12.5716 20.5338V15.9717C12.5716 15.7701 12.4888 15.5767 12.3415 15.4341C12.1941 15.2915 11.9942 15.2114 11.7858 15.2114H10.2142C10.0058 15.2114 9.80589 15.2915 9.65852 15.4341C9.51115 15.5767 9.42836 15.7701 9.42836 15.9717V20.5338C9.42836 20.7355 9.34557 20.9289 9.1982 21.0715C9.05083 21.2141 8.85095 21.2942 8.64254 21.2942H5.49928C4.87405 21.2942 4.27442 21.0539 3.83232 20.6261C3.39021 20.1983 3.14184 19.6181 3.14184 19.0131V11.4096H0.78439C0.62925 11.4089 0.477811 11.3637 0.349157 11.2798C0.220503 11.1959 0.120392 11.0771 0.06144 10.9382C0.00126272 10.7998 -0.0151786 10.6471 0.0141905 10.4996C0.0435597 10.3521 0.117423 10.2164 0.226461 10.1094L10.4421 0.22491C10.5151 0.153644 10.602 0.097078 10.6978 0.0584761C10.7935 0.0198742 10.8963 0 11 0C11.1037 0 11.2064 0.0198742 11.3022 0.0584761C11.398 0.097078 11.4849 0.153644 11.5579 0.22491L21.7735 10.1094C21.8826 10.2164 21.9564 10.3521 21.9858 10.4996C22.0152 10.6471 21.9987 10.7998 21.9385 10.9382Z" fill="#2590CF"/>
</svg>
