<svg width="23" height="21" viewBox="0 0 23 21" fill="none" xmlns="http://www.w3.org/2000/svg">
<path d="M10.3234 0C4.63428 0 0 4.22064 0 9.40196C0 14.5833 4.63428 18.8121 10.3234 18.8121C12.7533 18.8121 14.9882 18.0365 16.7544 16.7488L21.0545 20.6631C21.2715 20.8525 21.5614 20.957 21.862 20.9542C22.1625 20.9514 22.45 20.8416 22.6627 20.6481C22.8754 20.4547 22.9964 20.1931 22.9999 19.9193C23.0034 19.6456 22.8891 19.3815 22.6814 19.1836L18.3813 15.2673C19.7963 13.6562 20.6489 11.6176 20.6489 9.40196C20.6489 4.22064 16.0124 0 10.3234 0ZM10.3234 2.08981C14.7724 2.08981 18.3521 5.35006 18.3521 9.40196C18.3521 13.4539 14.7724 16.7223 10.3234 16.7223C5.87436 16.7223 2.29458 13.4539 2.29458 9.40196C2.29458 5.35006 5.87436 2.08981 10.3234 2.08981Z" fill="#7D8FAB"/>
</svg>
