<svg width="16" height="13" viewBox="0 0 16 13" fill="none" xmlns="http://www.w3.org/2000/svg">
<path d="M6.1767 1.58554C6.32561 1.10366 7.00771 1.10366 7.15662 1.58554L8.12877 4.73146C8.19517 4.94634 8.39383 5.09288 8.61873 5.09288H11.8173C12.3078 5.09288 12.5184 5.71543 12.1286 6.01321L9.49736 8.0233C9.32658 8.15376 9.25526 8.37688 9.31871 8.58222L10.3132 11.8004C10.4606 12.2774 9.90868 12.6624 9.51192 12.3593L6.97798 10.4236C6.79418 10.2832 6.53915 10.2832 6.35535 10.4236L3.82141 12.3593C3.42465 12.6624 2.87272 12.2774 3.02013 11.8004L4.01461 8.58222C4.07806 8.37688 4.00675 8.15376 3.83597 8.0233L1.20474 6.01321C0.814934 5.71543 1.02552 5.09288 1.51605 5.09288H4.7146C4.9395 5.09288 5.13816 4.94634 5.20456 4.73146L6.1767 1.58554Z" fill="#FFE600"/>
</svg>
