<svg width="17" height="18" viewBox="0 0 17 18" fill="none" xmlns="http://www.w3.org/2000/svg">
<path d="M0 16.3125C0 17.2441 0.773951 18 1.72789 18H14.3991C15.353 18 16.127 17.2441 16.127 16.3125V6.75H0V16.3125ZM11.5193 9.42188C11.5193 9.18984 11.7137 9 11.9512 9H13.3912C13.6287 9 13.8231 9.18984 13.8231 9.42188V10.8281C13.8231 11.0602 13.6287 11.25 13.3912 11.25H11.9512C11.7137 11.25 11.5193 11.0602 11.5193 10.8281V9.42188ZM11.5193 13.9219C11.5193 13.6898 11.7137 13.5 11.9512 13.5H13.3912C13.6287 13.5 13.8231 13.6898 13.8231 13.9219V15.3281C13.8231 15.5602 13.6287 15.75 13.3912 15.75H11.9512C11.7137 15.75 11.5193 15.5602 11.5193 15.3281V13.9219ZM6.91156 9.42188C6.91156 9.18984 7.10595 9 7.34354 9H8.78345C9.02103 9 9.21542 9.18984 9.21542 9.42188V10.8281C9.21542 11.0602 9.02103 11.25 8.78345 11.25H7.34354C7.10595 11.25 6.91156 11.0602 6.91156 10.8281V9.42188ZM6.91156 13.9219C6.91156 13.6898 7.10595 13.5 7.34354 13.5H8.78345C9.02103 13.5 9.21542 13.6898 9.21542 13.9219V15.3281C9.21542 15.5602 9.02103 15.75 8.78345 15.75H7.34354C7.10595 15.75 6.91156 15.5602 6.91156 15.3281V13.9219ZM2.30385 9.42188C2.30385 9.18984 2.49824 9 2.73583 9H4.17574C4.41332 9 4.60771 9.18984 4.60771 9.42188V10.8281C4.60771 11.0602 4.41332 11.25 4.17574 11.25H2.73583C2.49824 11.25 2.30385 11.0602 2.30385 10.8281V9.42188ZM2.30385 13.9219C2.30385 13.6898 2.49824 13.5 2.73583 13.5H4.17574C4.41332 13.5 4.60771 13.6898 4.60771 13.9219V15.3281C4.60771 15.5602 4.41332 15.75 4.17574 15.75H2.73583C2.49824 15.75 2.30385 15.5602 2.30385 15.3281V13.9219ZM14.3991 2.25H12.6712V0.5625C12.6712 0.253125 12.412 0 12.0952 0H10.9433C10.6265 0 10.3673 0.253125 10.3673 0.5625V2.25H5.75964V0.5625C5.75964 0.253125 5.50045 0 5.18367 0H4.03175C3.71497 0 3.45578 0.253125 3.45578 0.5625V2.25H1.72789C0.773951 2.25 0 3.00586 0 3.9375V5.625H16.127V3.9375C16.127 3.00586 15.353 2.25 14.3991 2.25Z" fill="white"/>
</svg>
